<svg id="Layer_1" data-name="Layer 1" xmlns="http://www.w3.org/2000/svg" viewBox="0 0 558.42 98.48"><defs><style>.cls-1{fill:#7c75e3;}.cls-2{fill:#9e9e9e;}</style></defs><path class="cls-1" d="M1232.62,604.84v8.41c-2.38,1.54-6.59,2.38-10.65,2.38v70c4.06.14,8.27,1,10.65,2.38v8.4h-35.44v-8.4c2.1-1.26,6.44-2.24,10.64-2.38v-70c-4.2,0-8.54-1-10.64-2.38v-8.41Z" transform="translate(-1197.18 -599.66)"/><path class="cls-1" d="M1285.71,689a18,18,0,0,1,8.55-2.24V655.56c0-7.57-4.48-10.65-11.07-10.65-5.6,0-11.9,3.08-17.65,8V686.8a19.49,19.49,0,0,1,8.69,2.24v7.42H1243V689a20.35,20.35,0,0,1,9.24-2.24V645.19h-1.12c-2.94-.28-6.16-1-8.12-2.24V634.4h19.33c1.4,2,2,5.47,2.24,9,6.17-6.17,13.31-10.79,22.84-10.79,11.9,0,20.17,6.31,20.17,19.47V686.8c3.22.28,6.58,1,8.68,2.24v7.42h-30.54Z" transform="translate(-1197.18 -599.66)"/><path class="cls-2" d="M1362.77,599.66h23.81v83.77c0,2.67.42,4.07,2.66,4.07a16.63,16.63,0,0,0,6.45-1.82v9.52a21.36,21.36,0,0,1-10.51,2.94c-7.84,0-10.78-4.2-11.63-9.1a27.1,27.1,0,0,1-20.59,9.1c-18.21,0-26.62-12.46-26.62-28.58,0-23.25,12.61-37,34.75-37a65.56,65.56,0,0,1,12.18,1.12V610.59a21.27,21.27,0,0,1-10.5-2.67Zm10.5,79.43v-33.9a55,55,0,0,0-12.88-1.4c-5.33,0-10.79,1.26-14.71,3.92-3.37,4.34-5.47,12.75-5.47,20.31,0,11.63,5.89,18.5,15.27,18.5C1362.21,686.52,1368.09,683.85,1373.27,679.09Z" transform="translate(-1197.18 -599.66)"/><path class="cls-2" d="M1439.12,632.58c14,0,26.06,5.6,26.06,25.36,0,3.92-.28,8.4-.56,10.92h-44.41c.7,11.77,6.72,18.5,20.87,18.5a60.77,60.77,0,0,0,23-5.05v11.07c-4.91,2.52-14.29,4.76-25.08,4.76-24.66,0-32.5-14.29-32.5-30C1406.48,647.43,1418.39,632.58,1439.12,632.58Zm-18.21,26.2h30.68v-2.1c0-9.25-4.91-13.45-13.31-13.45-4.62,0-9.81,1.54-12.61,3.64C1423.71,649.39,1421.89,653.59,1420.91,658.78Z" transform="translate(-1197.18 -599.66)"/><path class="cls-2" d="M1487,686.8V610.59a20.69,20.69,0,0,1-10.36-2.67v-8.26h23.67v87.28c3.36.14,6.45.7,8.69,2.1v7.42h-31.38V689C1479.89,687.64,1483.25,686.94,1487,686.8Z" transform="translate(-1197.18 -599.66)"/><path class="cls-2" d="M1518,634.4h22.83v52.4a19.64,19.64,0,0,1,8.83,2.24v7.42h-31.38V689c2.1-1.4,5.6-2.1,9.24-2.24V645.33A23.63,23.63,0,0,1,1518,643Zm15.41-10.92a9.79,9.79,0,0,1-10.09-9.67,9.9,9.9,0,0,1,10.09-9.81,9.78,9.78,0,0,1,9.94,9.81A9.66,9.66,0,0,1,1533.41,623.48Z" transform="translate(-1197.18 -599.66)"/><path class="cls-2" d="M1560.16,644.07a19.35,19.35,0,0,1-8.54-2.38V634.4h31.52v7.29c-2.38,1.54-5.89,2.24-9,2.38l16.67,40.48,16.67-40.48a20,20,0,0,1-8.26-2.38V634.4h28v7.29c-2,1.26-5.33,2.1-8.83,2.38l-22,52.39h-14.29Z" transform="translate(-1197.18 -599.66)"/><path class="cls-2" d="M1664.81,632.58c14,0,26.06,5.6,26.06,25.36,0,3.92-.28,8.4-.56,10.92H1645.9c.7,11.77,6.73,18.5,20.88,18.5a60.72,60.72,0,0,0,23-5.05v11.07c-4.9,2.52-14.29,4.76-25.08,4.76-24.65,0-32.5-14.29-32.5-30C1632.17,647.43,1644.08,632.58,1664.81,632.58Zm-18.21,26.2h30.68v-2.1c0-9.25-4.9-13.45-13.31-13.45-4.62,0-9.8,1.54-12.6,3.64C1649.4,649.39,1647.58,653.59,1646.6,658.78Z" transform="translate(-1197.18 -599.66)"/><path class="cls-2" d="M1704.32,689a21.08,21.08,0,0,1,9.39-2.24V645.19h-1.12c-3.22-.28-6.3-1-8.27-2.24V634.4h19.34c1.54,2.1,2.24,6,2.38,10v.84c6.3-7.71,13.17-11.63,22.27-11.63a29,29,0,0,1,7.29.84v20h-9.39a26,26,0,0,1-2.8-8.41c-5.46.28-10.93,2.94-16.39,8.69V686.8h.42c4.2,0,8.4.7,10.79,2.24v7.42h-33.91Z" transform="translate(-1197.18 -599.66)"/></svg>