<svg id="Layer_1" data-name="Layer 1" xmlns="http://www.w3.org/2000/svg" viewBox="0 0 148.65 91.28"><defs><style>.cls-1{fill:#7c75e3;}</style></defs><path class="cls-1" d="M1181,614.94l-60,40.91,1.87-3.4a18.07,18.07,0,0,0,2.22-8.07l52.7-35.91a11.28,11.28,0,0,0-8-3.28h-126a11.27,11.27,0,0,0-7.48,2.83l53.35,36.36a18.08,18.08,0,0,0,2.23,8.07l1.86,3.4-61.06-41.62a11.47,11.47,0,0,0-.23,2.29v68.61a11.33,11.33,0,0,0,11.33,11.33h126a11.33,11.33,0,0,0,11.33-11.33V616.52A11.62,11.62,0,0,0,1181,614.94ZM1107.41,673l-12.25-22.33c-5-9.09,1-20.6,11.34-21.2.3,0,.6,0,.91,0l.9,0c10.35.6,16.33,12.11,11.34,21.2Z" transform="translate(-1032.51 -605.19)"/><path class="cls-1" d="M1107.41,637.93a4.62,4.62,0,1,0,4.62,4.62A4.62,4.62,0,0,0,1107.41,637.93Z" transform="translate(-1032.51 -605.19)"/></svg>